<svg id="Layer_1" data-name="Layer 1" xmlns="http://www.w3.org/2000/svg" width="20" height="20" viewBox="0 0 20 20"><title>yen-statement</title><path d="M17,0h2a1,1,0,0,1,1,1V19a1,1,0,0,1-1,1,1,1,0,0,1-.56-.17L16,18.2l-2.44,1.63a1,1,0,0,1-1.11,0L10,18.2,7.56,19.83a1,1,0,0,1-1.11,0L4,18.2,1.56,19.83a1,1,0,0,1-1.39-.27A1,1,0,0,1,0,19V1A1,1,0,0,1,1,0H3A1,1,0,0,1,3,2H2V17.13l1.45-1a1,1,0,0,1,1.11,0L7,17.8l2.44-1.63a1,1,0,0,1,1.11,0L13,17.8l2.44-1.63a1,1,0,0,1,1.12,0l1.44,1V2H17a1,1,0,0,1,0-2ZM10.88,7h1.24a.75.75,0,1,1,0,1.5H10.88v1a1,1,0,0,1-2,0v-1H7.62a.75.75,0,0,1,0-1.5H8.88V6.2H7.62a.75.75,0,0,1,0-1.5h.86L6.63,1.5A1,1,0,0,1,8.37.5L9.88,3.12,11.4.5A1,1,0,0,1,12.76.14a1,1,0,0,1,.37,1.36L11.28,4.7h.84a.75.75,0,1,1,0,1.5H10.88Z"/></svg>