<svg xmlns="http://www.w3.org/2000/svg" viewBox="0 0 295.1 130.61"><path d="M46.91,0H44.49C20.62,1.45,1.33,20.24,0,44.06v2.4H7.41l.35-4.11C9.12,24.42,24.88,8.9,42.94,7.72l4-.35Zm0,24.35-2.42.17c-10.13.87-19.07,9.53-19.66,19.71l-.17,2.23H46.91Z" style="fill:#f93549"/><path d="M128.64,103.77v4a6,6,0,0,1,0,12.08v4a10,10,0,0,0,0-20Z" style="fill:#f93549"/><polygon points="295.03 25.34 295.03 11.65 259.98 11.65 255.14 11.65 246.28 11.65 246.28 80.63 255.14 80.63 255.14 80.63 295.03 80.63 295.03 66.92 259.98 66.92 259.98 52.88 293.3 52.88 293.3 39.18 259.98 39.18 259.98 25.34 295.03 25.34" style="fill:#00416b"/><polygon points="150.04 66.85 119.42 66.85 119.42 11.65 105.65 11.65 105.65 80.63 150.04 80.67 150.04 66.85" style="fill:#00416b"/><polygon points="215.63 11.65 215.63 11.73 196.43 43.04 177.17 11.65 176.94 11.86 176.94 11.65 163.17 11.65 163.17 80.63 176.94 80.63 176.94 37.59 188.35 56.2 188.28 56.32 188.42 56.32 204.43 56.32 204.58 56.32 204.5 56.2 215.63 38.05 215.63 80.63 229.4 80.63 229.4 11.65 215.63 11.65" style="fill:#00416b"/><path d="M54,11.66l-3.28-.52L46.91,11l-3.63.16-3.62.52c-39.83,9.56-37,64.57,3.62,70l3.63.17,3.79-.17C91.32,75.85,93.88,21.11,54,11.66m-32.77,40-.34-2.4-.17-2.75.17-2.57.34-2.74C28.41,12.2,69.07,14.31,73,43.89l.17,2.57L73,49.21c-4.32,29.43-44.57,31.31-51.74,2.4" style="fill:#00416b"/><path d="M20.06,103.79h3.7L32,124H28l-1.86-4.81H17.69L15.82,124h-4Zm-1.29,12.48h6.31l-3.16-8.09Z" style="fill:#00416b"/><path d="M34.6,109.26h3.06l.48,2.13a6,6,0,0,1,5.08-2.49A5.45,5.45,0,0,1,49,114.52V124H45.12v-8.87a3,3,0,0,0-3.07-3.06,3.58,3.58,0,0,0-3.6,3.82V124H34.6Z" style="fill:#00416b"/><path d="M171.36,103.43a13.31,13.31,0,0,1,7.25,2.28L177,108.39a9,9,0,0,0-5.11-1.78c-4,0-6.82,3-6.82,7.28s2.79,7.28,6.82,7.28a8.92,8.92,0,0,0,5.11-1.78l1.63,2.68a13.31,13.31,0,0,1-7.25,2.28c-6.14,0-10.38-4.33-10.38-10.46S165.22,103.43,171.36,103.43Z" style="fill:#00416b"/><path d="M188.26,108.9c4.69,0,8,3.19,8,7.73s-3.28,7.72-8,7.72-7.93-3.18-7.93-7.72S183.6,108.9,188.26,108.9Zm0,12.45c2.38,0,4.06-2,4.06-4.72s-1.68-4.72-4.06-4.72-4,1.92-4,4.72S185.92,121.35,188.26,121.35Z" style="fill:#00416b"/><path d="M199.68,109.26h3.07l.48,2a6,6,0,0,1,4.84-2.37,5.06,5.06,0,0,1,4.72,2.71,6.59,6.59,0,0,1,5.33-2.71,5.23,5.23,0,0,1,5.5,5.38V124h-3.85v-9.11a2.72,2.72,0,0,0-2.86-2.82,3.32,3.32,0,0,0-3.34,3.58V124h-3.85v-9.11a2.71,2.71,0,0,0-2.82-2.82,3.32,3.32,0,0,0-3.37,3.58V124h-3.85Z" style="fill:#00416b"/><path d="M227.83,109.26h3.07l.48,1.89a5.75,5.75,0,0,1,4.72-2.25c4,0,6.76,3.19,6.76,7.73s-2.79,7.72-6.76,7.72a5.5,5.5,0,0,1-4.42-2v7.94h-3.85Zm7.28,2.68a3.45,3.45,0,0,0-3.49,3.7v2a3.47,3.47,0,0,0,3.49,3.7c2.25,0,3.85-2,3.85-4.69S237.36,111.94,235.11,111.94Z" style="fill:#00416b"/><path d="M252.17,114.82a13.57,13.57,0,0,1,2.86.3v-.78c0-1.5-1.2-2.58-3-2.58a13.06,13.06,0,0,0-4.84,1l-1-2.68a17.37,17.37,0,0,1,6.25-1.23c3.73,0,6.2,2.22,6.2,5.5v6a1,1,0,0,0,1,1,3.61,3.61,0,0,0,.75-.09l.27,2.79a10.92,10.92,0,0,1-2,.21,3.24,3.24,0,0,1-3.16-2,6.91,6.91,0,0,1-4.84,2c-3.07,0-5.26-1.92-5.26-4.63C245.38,116.63,247.9,114.82,252.17,114.82Zm-.54,6.83a3.24,3.24,0,0,0,3.4-3.43v-.87a9.31,9.31,0,0,0-2.41-.3c-2.19,0-3.55.93-3.55,2.46A2.34,2.34,0,0,0,251.63,121.65Z" style="fill:#00416b"/><path d="M263.3,109.26h3.06l.49,2.13a6,6,0,0,1,5.08-2.49,5.44,5.44,0,0,1,5.74,5.62V124h-3.85v-8.87a3,3,0,0,0-3.06-3.06,3.58,3.58,0,0,0-3.61,3.82V124H263.3Z" style="fill:#00416b"/><path d="M288.55,125.65c-1.32,3.33-3.19,5-5.89,5a11.38,11.38,0,0,1-2.29-.27l.51-3a6.69,6.69,0,0,0,1.41.21c1.33,0,2.11-.72,2.8-2.43l.51-1.3-6.07-14.55h4l3.82,10.37,3.72-10.37h4Z" style="fill:#00416b"/><polygon points="123.11 107.76 123.11 103.78 112.93 103.78 111.52 103.78 108.95 103.78 108.95 123.82 111.52 123.82 111.52 123.82 123.11 123.82 123.11 119.84 112.93 119.84 112.93 115.76 122.61 115.76 122.61 111.78 112.93 111.78 112.93 107.76 123.11 107.76" style="fill:#00416b"/><polygon points="78.2 103.78 78.2 111.81 68.49 111.81 68.49 103.78 64.51 103.78 64.51 123.82 68.49 123.82 68.49 115.79 78.2 115.79 78.2 123.82 82.18 123.82 82.18 103.78 78.2 103.78" style="fill:#00416b"/><path d="M105.44,123.82,98,112.68l1-.93a11.15,11.15,0,0,0,3.88-8H99.11a7.19,7.19,0,0,1-2.56,5.15c-1.14,1-3,2.58-4.5,3.83v-8.92h-4v20h4v-6.21l0,0,3-2.51,5.71,8.69Z" style="fill:#00416b"/><path d="M146.43,103.77v4a6,6,0,0,0,0,12.08v4a10,10,0,1,1,0-20Z" style="fill:#00416b"/></svg>
